<svg width="43" height="34" viewBox="0 0 43 34" fill="none" xmlns="http://www.w3.org/2000/svg">
<path opacity="0.1" d="M27.16 33.76L26.08 32.08C34 26.92 37.24 21.88 37.24 17.44C37.24 14.56 35.44 13.36 34 13.12L28.96 17.8C26.2 16.84 22.6 13.96 22.6 9.4C22.6 4.11999 26.92 0.639995 32.2 0.639995C38.68 0.639995 43 4.84 43 12.16C43 21.28 36.04 28.24 27.16 33.76ZM4.96 33.76L3.88 32.08C11.8 26.92 15.04 21.88 15.04 17.44C15.04 14.56 13.24 13.36 11.8 13.12L6.76 17.8C4 16.84 0.4 13.96 0.4 9.4C0.4 4.11999 4.72 0.639995 10 0.639995C16.48 0.639995 20.8 4.84 20.8 12.16C20.8 21.28 13.84 28.24 4.96 33.76Z" fill="black"/>
</svg>
