<svg width="80" height="80" viewBox="0 0 80 80" fill="none" xmlns="http://www.w3.org/2000/svg">
<circle cx="40" cy="40" r="39.5" fill="url(#paint0_radial_31_4480)" stroke="#D1E9E5"/>
<g filter="url(#filter0_d_31_4480)">
<ellipse cx="40" cy="40" rx="32" ry="32" fill="url(#paint1_linear_31_4480)"/>
<path d="M71.5 40C71.5 57.397 57.397 71.5 40 71.5C22.603 71.5 8.5 57.397 8.5 40C8.5 22.603 22.603 8.5 40 8.5C57.397 8.5 71.5 22.603 71.5 40Z" stroke="white"/>
</g>
<g clip-path="url(#clip0_31_4480)">
<path d="M28.0009 30C28.5943 30 29.1743 29.8241 29.6676 29.4944C30.161 29.1648 30.5455 28.6962 30.7725 28.1481C30.9996 27.5999 31.059 26.9967 30.9433 26.4147C30.8275 25.8328 30.5418 25.2982 30.1222 24.8787C29.7027 24.4591 29.1681 24.1734 28.5862 24.0576C28.0042 23.9419 27.401 24.0013 26.8529 24.2284C26.3047 24.4554 25.8361 24.8399 25.5065 25.3333C25.1769 25.8266 25.0009 26.4067 25.0009 27C25.0009 27.7957 25.317 28.5587 25.8796 29.1213C26.4422 29.6839 27.2053 30 28.0009 30ZM52.0009 30C52.5943 30 53.1743 29.8241 53.6676 29.4944C54.161 29.1648 54.5455 28.6962 54.7725 28.1481C54.9996 27.5999 55.059 26.9967 54.9433 26.4147C54.8275 25.8328 54.5418 25.2982 54.1222 24.8787C53.7027 24.4591 53.1681 24.1734 52.5862 24.0576C52.0042 23.9419 51.401 24.0013 50.8529 24.2284C50.3047 24.4554 49.8361 24.8399 49.5065 25.3333C49.1769 25.8266 49.0009 26.4067 49.0009 27C49.0009 27.7957 49.317 28.5587 49.8796 29.1213C50.4422 29.6839 51.2053 30 52.0009 30ZM59.8569 53.255L57.1009 46.38L54.5319 49.28L54.4069 50.417L56.1379 54.742C56.2866 55.1142 56.5437 55.4332 56.8759 55.6575C57.2081 55.8818 57.6001 56.0011 58.0009 56C58.256 56.0013 58.5088 55.9524 58.7449 55.856C59.237 55.6582 59.6303 55.2731 59.8385 54.7853C60.0466 54.2976 60.0525 53.7471 59.8549 53.255H59.8569ZM57.7179 40.143L56.5619 35.131C56.4186 34.5122 56.1318 33.9359 55.7246 33.4484C55.3174 32.961 54.8013 32.5762 54.2179 32.325C53.6589 32.0793 53.0496 31.9699 52.4401 32.0057C51.8306 32.0415 51.2383 32.2215 50.7119 32.531C49.2949 33.3665 48.2261 34.6842 47.7009 36.243L47.0009 38.362L46.0009 39V33C46.0009 32.7348 45.8956 32.4804 45.708 32.2929C45.5205 32.1054 45.2661 32 45.0009 32H35.0009C34.7357 32 34.4813 32.1054 34.2938 32.2929C34.1063 32.4804 34.0009 32.7348 34.0009 33V39L32.9949 38.363L32.2889 36.244C31.7687 34.6834 30.7004 33.3642 29.2819 32.531C28.7555 32.2216 28.1632 32.0416 27.5537 32.0058C26.9442 31.97 26.3349 32.0794 25.7759 32.325C25.1925 32.5762 24.6764 32.961 24.2692 33.4484C23.8621 33.9359 23.5752 34.5122 23.4319 35.131L22.2819 40.143C22.1394 40.7627 22.1467 41.4075 22.3033 42.0239C22.4598 42.6402 22.761 43.2103 23.1819 43.687L27.3819 48.431L28.0129 54.218C28.0666 54.7077 28.2992 55.1604 28.666 55.4893C29.0329 55.8181 29.5082 56 30.0009 56C30.0759 56 30.1449 55.994 30.2199 55.988C30.747 55.9299 31.2294 55.6649 31.5611 55.2512C31.8928 54.8376 32.0467 54.3091 31.9889 53.782L31.3579 47.982C31.2642 47.1704 30.9239 46.4071 30.3829 45.795L27.6759 42.73L28.7759 38.336L29.2009 39.612C29.4783 40.4383 30.0153 41.1528 30.7319 41.649L33.9259 43.68C34.258 43.8594 34.6244 43.9661 35.0009 43.993H45.0009C45.3773 43.9664 45.7438 43.86 46.0759 43.681L49.2699 41.65C49.988 41.1549 50.5254 40.4396 50.8009 39.612L51.2259 38.337L52.3259 42.731L49.6199 45.793C49.0789 46.4051 48.7386 47.1684 48.6449 47.98L48.0139 53.78C47.9561 54.3071 48.11 54.8356 48.4417 55.2492C48.7734 55.6629 49.2558 55.9279 49.7829 55.986C49.8579 55.992 49.9269 55.998 50.0019 55.998C50.4943 55.9978 50.9692 55.8159 51.3358 55.4873C51.7025 55.1587 51.935 54.7064 51.9889 54.217L52.6199 48.43L56.8199 43.686C57.2393 43.2084 57.5395 42.6382 57.6959 42.0222C57.8524 41.4062 57.8606 40.7618 57.7199 40.142L57.7179 40.143ZM22.8939 46.38L20.1449 53.255C20.0396 53.5002 19.9843 53.7639 19.9825 54.0307C19.9806 54.2975 20.0322 54.562 20.1341 54.8086C20.236 55.0552 20.3863 55.2789 20.576 55.4666C20.7657 55.6542 20.991 55.802 21.2387 55.9012C21.4864 56.0005 21.7514 56.0491 22.0182 56.0443C22.285 56.0396 22.5481 55.9814 22.7921 55.8734C23.0361 55.7654 23.256 55.6096 23.4389 55.4153C23.6217 55.221 23.7639 54.9921 23.8569 54.742L25.5879 50.417L25.4629 49.28L22.8939 46.38Z" fill="url(#paint2_linear_31_4480)"/>
</g>
<defs>
<filter id="filter0_d_31_4480" x="4" y="4" width="72" height="72" filterUnits="userSpaceOnUse" color-interpolation-filters="sRGB">
<feFlood flood-opacity="0" result="BackgroundImageFix"/>
<feColorMatrix in="SourceAlpha" type="matrix" values="0 0 0 0 0 0 0 0 0 0 0 0 0 0 0 0 0 0 127 0" result="hardAlpha"/>
<feOffset/>
<feGaussianBlur stdDeviation="2"/>
<feComposite in2="hardAlpha" operator="out"/>
<feColorMatrix type="matrix" values="0 0 0 0 0 0 0 0 0 0.505882 0 0 0 0 0.419608 0 0 0 0.35 0"/>
<feBlend mode="normal" in2="BackgroundImageFix" result="effect1_dropShadow_31_4480"/>
<feBlend mode="normal" in="SourceGraphic" in2="effect1_dropShadow_31_4480" result="shape"/>
</filter>
<radialGradient id="paint0_radial_31_4480" cx="0" cy="0" r="1" gradientUnits="userSpaceOnUse" gradientTransform="translate(40 40) rotate(90) scale(40)">
<stop stop-color="white" stop-opacity="0.7"/>
<stop offset="0.229167" stop-color="white" stop-opacity="0"/>
<stop offset="1" stop-color="white" stop-opacity="0.5"/>
</radialGradient>
<linearGradient id="paint1_linear_31_4480" x1="40" y1="7.85938" x2="41" y2="71.8594" gradientUnits="userSpaceOnUse">
<stop stop-color="white"/>
<stop offset="1" stop-color="#CCE6E3"/>
</linearGradient>
<linearGradient id="paint2_linear_31_4480" x1="39.9907" y1="24" x2="39.9907" y2="56.0447" gradientUnits="userSpaceOnUse">
<stop stop-color="#008271"/>
<stop offset="1" stop-color="#00B39B"/>
</linearGradient>
<clipPath id="clip0_31_4480">
<rect width="40" height="31.999" fill="white" transform="translate(20 24)"/>
</clipPath>
</defs>
</svg>
