<svg width="80" height="80" viewBox="0 0 80 80" fill="none" xmlns="http://www.w3.org/2000/svg">
<circle cx="40" cy="40" r="39.5" fill="url(#paint0_radial_31_4449)" stroke="#D1E9E5"/>
<g filter="url(#filter0_d_31_4449)">
<ellipse cx="40" cy="39.8594" rx="32" ry="32" fill="url(#paint1_linear_31_4449)"/>
<path d="M71.5 39.8594C71.5 57.2563 57.397 71.3594 40 71.3594C22.603 71.3594 8.5 57.2563 8.5 39.8594C8.5 22.4624 22.603 8.35938 40 8.35938C57.397 8.35938 71.5 22.4624 71.5 39.8594Z" stroke="white"/>
</g>
<path d="M50.5014 35.8575H41.0014V39.3575C41.0014 41.8388 38.9826 43.8575 36.5014 43.8575C34.0202 43.8575 32.0014 41.8388 32.0014 39.3575V31.7575L27.9452 34.195C26.7389 34.9138 26.0014 36.22 26.0014 37.62V40.5763L21.0014 43.4638C20.0452 44.0138 19.7139 45.2387 20.2702 46.195L25.2702 54.8575C25.8202 55.8137 27.0452 56.1387 28.0014 55.5887L34.4639 51.8575H43.0014C45.2076 51.8575 47.0014 50.0637 47.0014 47.8575H48.0014C49.1076 47.8575 50.0014 46.9637 50.0014 45.8575V41.8575H50.5014C51.3326 41.8575 52.0014 41.1888 52.0014 40.3575V37.3575C52.0014 36.5263 51.3326 35.8575 50.5014 35.8575ZM59.7326 33.52L54.7326 24.8575C54.1826 23.9013 52.9576 23.5763 52.0014 24.1263L45.5389 27.8575H39.1514C38.4014 27.8575 37.6701 28.07 37.0326 28.4638L34.9389 29.77C34.3514 30.1325 34.0014 30.7763 34.0014 31.4638V39.3575C34.0014 40.7388 35.1201 41.8575 36.5014 41.8575C37.8826 41.8575 39.0014 40.7388 39.0014 39.3575V33.8575H50.5014C52.4326 33.8575 54.0014 35.4263 54.0014 37.3575V39.1388L59.0014 36.2513C59.9576 35.695 60.2826 34.4763 59.7326 33.52Z" fill="url(#paint2_linear_31_4449)"/>
<defs>
<filter id="filter0_d_31_4449" x="4" y="3.85938" width="72" height="72" filterUnits="userSpaceOnUse" color-interpolation-filters="sRGB">
<feFlood flood-opacity="0" result="BackgroundImageFix"/>
<feColorMatrix in="SourceAlpha" type="matrix" values="0 0 0 0 0 0 0 0 0 0 0 0 0 0 0 0 0 0 127 0" result="hardAlpha"/>
<feOffset/>
<feGaussianBlur stdDeviation="2"/>
<feComposite in2="hardAlpha" operator="out"/>
<feColorMatrix type="matrix" values="0 0 0 0 0 0 0 0 0 0.505882 0 0 0 0 0.419608 0 0 0 0.35 0"/>
<feBlend mode="normal" in2="BackgroundImageFix" result="effect1_dropShadow_31_4449"/>
<feBlend mode="normal" in="SourceGraphic" in2="effect1_dropShadow_31_4449" result="shape"/>
</filter>
<radialGradient id="paint0_radial_31_4449" cx="0" cy="0" r="1" gradientUnits="userSpaceOnUse" gradientTransform="translate(40 40) rotate(90) scale(40)">
<stop stop-color="white" stop-opacity="0.7"/>
<stop offset="0.229167" stop-color="white" stop-opacity="0"/>
<stop offset="1" stop-color="white" stop-opacity="0.5"/>
</radialGradient>
<linearGradient id="paint1_linear_31_4449" x1="40" y1="7.71875" x2="41" y2="71.7188" gradientUnits="userSpaceOnUse">
<stop stop-color="white"/>
<stop offset="1" stop-color="#CCE6E3"/>
</linearGradient>
<linearGradient id="paint2_linear_31_4449" x1="40" y1="23.8589" x2="40" y2="55.8561" gradientUnits="userSpaceOnUse">
<stop stop-color="#008271"/>
<stop offset="1" stop-color="#00B39B"/>
</linearGradient>
</defs>
</svg>
