<svg width="80" height="80" viewBox="0 0 80 80" fill="none" xmlns="http://www.w3.org/2000/svg">
<circle cx="40" cy="40" r="39.5" fill="url(#paint0_radial_31_4469)" stroke="#D1E9E5"/>
<g filter="url(#filter0_d_31_4469)">
<ellipse cx="40" cy="40" rx="32" ry="32" fill="url(#paint1_linear_31_4469)"/>
<path d="M71.5 40C71.5 57.397 57.397 71.5 40 71.5C22.603 71.5 8.5 57.397 8.5 40C8.5 22.603 22.603 8.5 40 8.5C57.397 8.5 71.5 22.603 71.5 40Z" stroke="white"/>
</g>
<g clip-path="url(#clip0_31_4469)">
<path d="M59.2782 44.0001C59.8956 43.9392 59.8347 43.2088 59.8347 43.2088C59.4434 43.2088 58.9216 42.6175 58.9216 42.6175L59.8347 42.2262C59.6086 42.1566 58.4608 41.7044 58.426 41.374C58.3912 41.0435 59.9999 40.9827 59.9999 40.9827C59.7043 40.5566 57.739 40.3305 57.6695 39.9392C57.5999 39.5479 58.8695 39.2783 58.8695 39.2783C58.5216 38.9305 56.7303 38.9827 56.7303 38.9827C56.7303 38.9827 57.5129 38.7827 57.3912 38.4696C57.2695 38.1479 58.3477 37.687 58.3477 37.687C57.026 37.2001 55.2347 38.4262 54.8869 37.9305C54.539 37.4435 55.7477 37.0696 55.7477 37.0696C55.426 36.9392 54.7738 37.1914 54.2608 37.4088L50.9738 33.0435C51.0869 32.9827 51.1564 32.9392 51.1564 32.9131C51.1564 32.7653 52.1043 32.5827 53.1043 32.6175C54.1043 32.6522 53.7912 33.2349 53.7912 33.6175C53.7912 34.0001 54.1825 35.174 54.1825 35.174C54.3912 35.0957 54.3303 33.7653 54.5912 34.3044C54.8521 34.8435 56.0347 35.4957 56.4521 35.9566C56.8782 36.4175 57.5303 36.287 57.5303 36.287C56.8782 36.0435 56.7477 35.3044 56.6434 34.9653C56.5477 34.6175 55.5999 34.0783 55.5999 34.0783C55.5999 34.0783 55.4347 33.5914 55.8956 33.6522C56.3564 33.7218 57.3477 34.3218 57.8434 34.5392C58.3303 34.7479 59.0521 35.7305 59.0521 35.7305C59.0521 35.7305 58.8434 34.8349 58.6347 34.4175C58.426 34.0088 57.8347 33.7305 57.5825 33.5479C57.3216 33.3653 57.3129 33.0435 57.6956 32.9566C58.0782 32.8696 58.6434 31.9392 58.6434 31.9392C58.226 32.2088 56.9738 32.0957 56.5303 31.8435C56.0869 31.5827 55.1129 31.2088 54.539 31.2783C53.9651 31.3479 52.8521 31.487 52.1825 31.3914C51.5129 31.2957 50.5912 31.9044 50.5912 31.9044C50.5912 31.9044 49.8521 30.4088 49.5564 29.7479C49.2608 29.087 49.2608 27.7131 49.1651 26.9044C49.0695 26.0957 49.6347 25.3392 49.7825 24.8522C49.9303 24.3653 50.9303 23.4783 51.8782 23.6609C52.826 23.8435 52.0782 24.7044 51.8434 25.1131C51.6173 25.5218 51.7912 26.3392 51.7912 26.3392C51.8608 25.9131 52.4086 25.7044 52.5129 25.9479C52.6086 26.1914 52.1651 26.6522 52.1043 26.8435C52.0347 27.0435 52.6608 27.9914 52.6608 27.9914C52.4782 27.0262 53.1043 26.5218 53.3477 26.4175C53.5912 26.3218 53.3477 26.8957 53.626 27.3827C53.9043 27.8696 55.0173 28.5914 55.0173 28.5914C55.1303 27.6088 54.1999 26.6609 54.3129 26.3479C54.426 26.0349 54.6608 26.2957 55.0782 26.6262C55.5043 26.9566 56.1129 26.9566 56.1129 26.9566C56.1129 26.9566 55.7825 26.4957 55.5564 26.174C55.3303 25.8435 55.4434 25.374 55.4782 25.1131C55.5129 24.8522 55.9043 24.9131 56.0956 24.9479C56.2956 24.9827 55.0521 23.374 54.2956 23.1479C53.539 22.9218 54.0956 22.5914 52.2695 22.4262C50.4347 22.2609 49.5564 23.6696 48.4782 25.5044C47.3999 27.3392 49.6869 32.6957 49.6869 32.6957C48.4869 33.774 48.2173 34.3653 48.5303 36.5218C48.8434 38.6783 53.8521 39.2001 53.8521 39.2001C53.8521 39.2001 55.9912 40.2088 55.026 42.4435C54.0695 44.6783 53.0173 43.8957 52.0347 43.7653C51.0521 43.6349 50.9216 43.5653 50.139 42.9479C49.3564 42.3305 46.6695 41.9044 45.5564 41.2175C44.4434 40.5305 44.0869 39.3566 43.9825 39.1827C43.8869 39.0088 43.026 37.7305 43.2956 37.3218C43.5651 36.9044 43.9825 37.7653 43.9825 37.7653C44.1303 37.374 43.9303 36.4175 44.0782 36.2435C44.226 36.0696 44.7129 37.3479 44.7129 37.3479C44.8086 37.1305 45.0347 36.3392 44.8086 35.8957C44.5912 35.4522 45.026 35.087 45.5216 34.9131C46.0173 34.7392 46.2782 35.5479 46.2782 35.5479C46.3738 35.4262 46.0086 33.9566 46.3738 33.8783C46.739 33.8088 47.1303 34.4696 47.1303 34.4696C47.1825 34.2696 47.1825 33.4609 47.1825 33.4609C46.7912 32.6522 47.1912 33.0175 47.2347 32.4435C47.2695 31.8696 46.6347 31.2696 46.9999 31.0175C47.3651 30.7653 48.2869 32.0001 48.2869 32.0001C48.4086 31.1392 47.539 30.3479 47.6173 29.9479C47.6956 29.5479 47.5477 29.1131 47.6173 28.774C47.6782 28.4262 47.0695 27.6609 47.0695 27.4696C47.0695 27.2783 47.539 27.3479 47.539 27.3479C47.539 26.8696 46.7912 26.2435 46.7912 26.0435C46.7912 25.8435 47.339 26.1653 47.3216 26.0696C47.2956 25.974 46.313 24.8435 46.0434 24.7479C45.7738 24.6522 44.426 24.0696 44.0608 24.0696C44.0086 24.0696 43.826 24.0696 43.5738 24.0609V22.7653C43.5738 22.7653 43.9825 21.8349 44.026 21.5131C44.0782 21.1914 44.8086 20.0175 45.1043 19.7566C45.3999 19.4957 44.2695 19.4349 44.0521 19.5827C43.8347 19.7305 43.5477 20.1131 43.2695 20.1131C42.9912 20.1131 42.7216 20.0609 42.6782 20.374C42.6434 20.6783 43.226 20.7218 43.1825 21.1827C43.1303 21.6522 42.4695 22.1653 42.2608 22.1653C42.0521 22.1653 41.5129 21.8957 41.4608 21.4696C41.4086 21.0435 41.3999 20.8175 41.3999 20.8175C41.3999 20.8175 42.1303 20.7566 42.0782 20.2088C42.026 19.6609 41.4956 19.6957 41.4782 19.6957C41.4608 19.6957 41.6521 18.9827 40.9564 19.0001C40.2608 18.9827 40.4347 19.6957 40.4173 19.6957C40.3999 19.6957 39.8695 19.6609 39.8173 20.2088C39.7651 20.7566 40.4956 20.8175 40.4956 20.8175C40.4956 20.8175 40.4869 21.0349 40.4347 21.4696C40.3825 21.8957 39.8434 22.1653 39.6347 22.1653C39.426 22.1653 38.7651 21.6522 38.7129 21.1827C38.6608 20.7131 39.2521 20.6783 39.2173 20.374C39.1825 20.0696 38.913 20.1131 38.626 20.1131C38.339 20.1131 38.0608 19.7305 37.8434 19.5827C37.626 19.4349 36.4956 19.4957 36.7912 19.7566C37.0869 20.0175 37.826 21.1914 37.8695 21.5131C37.9129 21.8349 38.3216 22.7653 38.3216 22.7653V24.1131C38.2695 24.1218 38.226 24.1392 38.2086 24.1566C37.8956 24.4001 37.0173 24.5044 36.226 24.5479C35.4434 24.6001 34.3651 25.1305 34.1564 25.2957C33.9477 25.4522 34.0695 25.8957 34.1477 26.2001C34.2173 26.5044 33.9738 26.6696 34.0347 27.1479C34.0956 27.6262 34.539 27.8088 34.6869 28.1131C34.8347 28.4175 35.2782 28.7914 35.2782 28.7914C35.2782 28.7914 35.8173 28.3131 36.4086 28.2175C36.9999 28.1218 37.1564 29.3479 37.1564 29.3479C37.1564 29.3479 36.0869 29.2349 34.7651 29.3479C33.4434 29.4609 31.9651 28.1218 31.9651 28.1218C31.2782 30.3566 35.313 30.0349 35.313 30.0349V30.6001H35.0347C34.5303 31.1479 35.7216 32.1305 35.7216 32.1305C35.7216 32.1305 34.3477 32.6522 34.1825 32.6175C34.0173 32.5827 31.6956 30.4262 30.0956 29.4435C28.4956 28.4609 28.6521 26.6262 28.6521 26.6262C28.6521 26.2435 29.2086 25.8696 29.739 25.5653C30.2695 25.2609 30.7738 24.8175 30.7303 24.374C30.6956 23.9305 30.3825 23.7218 30.3999 23.3914C30.4086 23.0609 30.1999 22.6349 29.9738 22.4262C29.7477 22.2175 29.5651 22.2783 29.7651 22.5479C29.9651 22.8175 29.9129 23.2262 29.626 23.3305C29.339 23.4349 29.1216 23.3653 28.7651 23.5131C28.4086 23.6609 28.626 24.3827 28.4956 24.9479C28.3564 25.5131 27.7216 25.7044 27.3216 25.4349C26.913 25.1653 27.026 24.2349 27.026 23.6522C27.026 23.0696 26.913 22.8696 26.539 22.8262C26.1651 22.7827 25.9738 22.9827 25.1564 22.7131C24.3303 22.4435 23.8521 23.5479 23.8521 23.5479C24.3999 23.0783 24.9216 23.5218 24.9216 23.5218C24.826 23.8001 25.226 24.2783 25.7043 24.5131C26.1825 24.7479 25.913 25.3392 25.3564 25.3827C24.8086 25.4349 24.2608 24.9044 23.9216 24.9131C23.5738 24.9218 23.5999 25.574 23.5999 25.574C22.8521 25.687 22.3825 26.6696 22.3825 26.6696C22.5825 26.2957 23.4173 26.2262 23.5738 26.687C23.739 27.1479 23.9043 27.1479 24.8347 27.1479C25.7651 27.1479 25.7825 27.7044 25.7651 28.2609C25.7477 28.8175 24.8521 29.3914 24.7303 29.9827C24.6173 30.574 25.2695 30.7479 25.2695 31.2609C25.2695 31.774 24.6173 31.687 24.6173 31.687C24.913 31.9305 25.939 31.3566 26.1738 31.1827C26.3999 31.0001 27.2434 30.7305 27.5043 31.1218C27.7651 31.5131 27.5651 31.8088 27.5651 31.8088C27.5651 31.8088 28.2434 31.6783 28.2173 32.1218C28.1999 32.5131 27.6086 32.9653 27.4782 33.0696C27.6608 32.974 28.6086 32.8522 28.5564 33.1131C28.4956 33.3914 27.8695 33.7653 27.8695 33.7653C27.9912 33.6957 29.1303 33.8522 28.9043 34.0609C28.6782 34.2696 28.8521 34.8609 28.8521 34.8609C28.9216 34.6175 29.6086 34.4783 29.4869 34.7479C29.3651 35.0175 29.5825 35.4696 29.5825 35.4696C29.5825 35.4696 30.2782 34.8696 30.539 34.9914C30.7999 35.1131 30.426 35.4001 30.2347 35.5044C30.0347 35.6175 30.0956 35.8088 30.0173 36.1044C29.939 36.4001 29.4782 36.174 29.4782 36.174C29.4782 36.174 29.626 36.3218 29.7043 36.5827C29.7825 36.8435 29.626 36.8609 28.0347 37.6262C26.4521 38.3914 24.9651 38.1914 24.539 37.7827C24.1129 37.374 24.739 36.4001 24.7825 35.8435C24.8347 35.287 23.9477 35.3566 23.9477 35.3566C23.9477 35.3566 23.9216 35.1131 23.3999 34.7479C22.8782 34.3914 22.339 34.9131 22.339 34.9131C22.6521 34.9131 23.426 35.3827 23.026 35.5827C22.626 35.7914 22.9216 36.1914 23.0782 36.6262C23.2347 37.0696 23.1477 37.5566 22.626 37.5044C22.1043 37.4435 22.0086 37.0262 21.7999 36.7566C21.5912 36.487 21.0173 36.6435 20.9043 36.8696C20.7912 37.0957 20.713 37.2349 20.4782 37.3392C20.2434 37.4349 19.9912 38.4001 19.9912 38.4001C20.4608 37.8783 20.8086 37.9218 20.7999 38.1653C20.7999 38.4088 21.139 38.9653 21.8521 38.9914C22.5738 39.0175 23.0173 39.5566 22.539 40.0001C22.0608 40.4435 21.2434 40.0175 20.8869 40.1305C20.5303 40.2435 20.9825 41.0175 20.8173 41.487C20.6521 41.9653 21.026 42.8001 21.026 42.8001C20.826 42.2262 21.3216 41.8175 21.3216 41.8175C21.3216 41.8175 21.7651 42.3044 22.3999 41.8957C23.0347 41.487 23.7738 41.4349 24.5303 41.4522C25.2869 41.4696 25.3477 42.4522 25.6086 42.9392C25.8695 43.4262 26.4782 43.0175 26.8347 43.1827C27.1912 43.3479 27.3738 43.8349 27.3738 43.8349C27.9303 43.2175 27.2782 42.8001 27.2782 42.8001C27.2782 42.8001 27.5216 42.8175 27.426 42.374C27.3303 41.9305 26.9477 41.7827 26.7043 41.6522C26.4608 41.5218 26.3912 41.1653 26.6086 41.2088C26.8173 41.2609 27.6086 41.1305 27.6086 41.1305C27.5129 41.4783 28.1999 42.174 28.1999 42.174C28.1651 41.8783 28.939 41.0435 28.939 41.0435C28.8086 41.3914 29.5303 43.2349 29.313 42.4175C29.313 42.3914 29.3043 42.3653 29.2956 42.3392C29.1477 41.574 29.8086 41.2435 29.8086 41.2435C29.8434 41.6696 30.3477 41.9827 30.3477 41.9827C30.2695 41.2609 31.7564 41.2001 32.113 41.3131C32.4695 41.4262 32.9651 40.9044 33.4521 41.3653C33.939 41.8262 33.6173 43.2175 33.6956 43.2262C33.7738 43.2435 34.5477 42.4088 34.5477 42.4088C34.5477 42.4088 34.8782 41.7566 34.7912 42.887C34.7129 44.0175 35.0347 44.3131 35.0347 44.3131C34.513 43.4435 35.8347 42.9914 35.8347 42.9914C36.1477 43.4696 35.6521 43.7914 35.7043 44.2696C35.7564 44.7479 36.4086 44.8783 36.4086 44.8783C36.3303 44.0609 37.0608 43.8001 37.0608 43.8001C37.1912 44.6175 39.2869 44.9914 39.2869 44.9914C39.2869 44.9914 38.9303 44.287 38.7477 43.8435C38.5651 43.4001 41.1564 44.0522 41.1564 44.0522C41.1564 44.0522 43.2956 43.7044 42.9738 44.1827C42.6434 44.6609 40.4347 45.5914 39.5043 46.0001C38.5738 46.4088 37.5216 49.0435 36.9564 49.8783C36.3912 50.7131 35.7043 51.0349 35.6434 51.2175C35.5825 51.4001 37.1738 51.487 36.7999 51.9305C36.4173 52.374 35.2521 52.6262 35.2521 52.6262C35.2521 52.6262 36.4521 52.5653 36.4521 52.9827C36.4521 53.4001 34.4608 54.4783 33.8869 54.6783C33.313 54.8783 31.6782 54.4088 31.3825 54.2349C31.0869 54.0609 29.8869 54.2435 29.6434 54.4783C29.3999 54.7131 28.8869 54.8435 28.5651 54.9914C28.2434 55.1392 28.0869 55.774 28.0869 55.774C28.0869 55.774 28.6521 55.5044 28.9477 55.5305C29.2434 55.5566 29.2434 55.7044 29.339 56.1653C29.4347 56.6349 28.9216 56.6783 28.6347 57.0522C28.3477 57.4175 28.6347 57.6435 28.6347 57.6435C28.6347 57.6435 28.5999 57.4957 29.1912 57.2957C29.7825 57.0957 30.7825 57.5653 30.5651 57.7827C30.3477 58.0001 30.2173 59.2088 30.2173 59.2088C30.2173 59.2088 30.6347 58.1566 31.0782 58.4957C31.5216 58.8435 33.2347 58.1305 33.626 57.8609C34.0173 57.5914 34.6782 57.7392 35.0782 58.0088C35.4695 58.2783 36.1825 58.5479 36.5477 58.6001C36.913 58.6522 37.139 59.6088 37.139 59.6088C37.6086 58.8522 37.2086 58.2088 37.0173 57.7479C36.8173 57.2783 35.4782 56.8522 35.4782 56.8522C35.4782 56.8522 37.0782 55.8349 38.8521 55.8349C40.626 55.8349 41.2434 55.5044 41.7477 55.2783C42.2521 55.0522 41.7477 53.9392 41.7477 53.9392C41.7477 53.9392 42.026 54.3479 42.5477 54.7218C43.0695 55.0957 43.626 55.0175 43.626 55.0175C43.626 55.0175 42.7129 54.2175 42.6086 53.8522C42.5129 53.4957 42.7912 52.2349 42.9999 52.8088C43.2086 53.3827 43.9825 53.6435 43.9825 53.6435C43.9825 53.6435 43.6086 53.2696 43.7043 52.9044C43.7999 52.5479 43.1129 51.4957 43.2956 51.2349C43.4782 50.974 44.5912 52.4957 44.5912 52.4957C44.7738 51.9218 44.0521 50.9131 44.0347 50.5827C44.0173 50.2522 44.539 50.3566 44.539 50.3566C44.339 50.2088 43.8521 49.0175 44.226 48.8522C44.5999 48.687 45.0434 49.7044 45.0434 49.7044C45.0434 49.7044 44.9912 48.6088 44.7651 48.0696C44.539 47.5305 44.9303 47.3131 45.2521 46.9044C45.5825 46.4957 46.2521 46.4175 46.313 47.2522C46.3825 48.087 45.6434 49.774 45.5303 50.3914C45.4173 51.0088 45.9564 51.6348 45.5825 52.1914C45.2086 52.7479 45.026 54.4175 45.1043 53.9566C45.1825 53.4957 45.8608 52.9914 46.1216 52.9131C46.3825 52.8349 46.2521 53.5218 46.2521 54.0783C46.2521 54.6349 46.7303 55.0957 46.7303 55.0957C46.9303 54.9653 46.6782 54.1479 46.6782 54.1479C46.6782 54.1479 46.9564 53.9218 47.3303 54.2957C47.7043 54.6696 47.4434 55.5566 47.4434 55.5566L48.2956 55.2088C48.4782 55.5653 49.1129 55.6957 49.1129 55.6957C48.7825 55.3653 48.8347 54.1131 48.8347 54.1131C49.5043 54.1131 50.0086 55.4262 50.0086 55.4262C50.3999 54.6696 49.8434 53.8088 49.8434 53.8088C52.0521 54.1044 51.0695 56.1653 50.0869 56.574C49.1042 56.9827 49.2347 56.5218 48.7651 56.4436C48.2869 56.3653 47.5999 56.6088 47.0173 56.6435C46.426 56.6783 46.2521 57.1827 45.939 57.4262C45.626 57.6696 46.1043 58.0957 45.5129 58.2609C44.9216 58.4262 45.026 59.4522 45.026 59.4522C45.026 59.4522 45.6956 58.9653 46.0086 58.8175C46.3216 58.6696 46.3216 59.3218 46.1216 59.687C45.9216 60.0522 46.2173 60.7653 46.2173 60.7653C46.2173 60.7653 46.426 60.0262 46.6782 59.8696C46.9216 59.7044 47.7564 59.887 47.5651 60.2783C47.3651 60.6696 47.6782 61.2435 47.6782 61.2435C47.6782 61.2435 47.826 60.6349 47.9216 60.4783C48.0173 60.3131 48.426 60.1827 48.8695 60.1653C49.3129 60.1479 49.2956 59.4088 51.1477 59.0175C52.9999 58.6262 52.8956 57.3653 53.026 57.7566C53.1564 58.1479 53.3738 58.5392 53.4869 58.5218C53.5999 58.5044 53.7825 58.1305 54.1738 57.9044C54.5651 57.6783 54.5651 56.7305 54.5477 56.0696C54.5303 55.4175 55.7303 53.8175 55.8347 53.2088C55.9303 52.5914 55.739 52.2522 55.5651 51.8349C55.3912 51.4175 55.1738 50.8783 54.8086 50.6435C54.4434 50.4088 52.6695 50.6435 52.5912 50.6435C52.5129 50.6435 52.426 50.2522 52.739 50.0349C53.0521 49.8262 53.8521 50.0349 53.8521 50.0349C53.739 49.774 52.1825 48.4957 52.1825 48.4957C52.7564 48.3131 54.0782 48.4957 54.0782 48.4957C53.8695 47.974 52.0782 47.4522 52.2173 47.1392C52.3477 46.8262 53.8869 47.1392 53.8869 47.1392C53.7043 46.8609 52.3303 46.0783 52.626 45.8435C52.9216 45.6175 56.226 46.887 56.7825 46.5653C57.339 46.2349 58.6434 46.5653 58.6434 46.5653C58.6086 46.3044 57.9216 46.0435 57.9216 46.0435C58.0173 45.687 59.626 45.5218 59.626 45.5218C59.626 45.5218 58.6434 44.0783 59.2695 44.0262L59.2782 44.0001ZM49.9651 35.4696C49.3651 34.5044 49.7738 33.8783 50.2782 33.487C50.8956 34.2696 52.5825 36.4175 53.3216 37.6522C52.6347 37.487 50.8695 36.9131 49.9738 35.4696H49.9651Z" fill="url(#paint2_linear_31_4469)"/>
</g>
<defs>
<filter id="filter0_d_31_4469" x="4" y="4" width="72" height="72" filterUnits="userSpaceOnUse" color-interpolation-filters="sRGB">
<feFlood flood-opacity="0" result="BackgroundImageFix"/>
<feColorMatrix in="SourceAlpha" type="matrix" values="0 0 0 0 0 0 0 0 0 0 0 0 0 0 0 0 0 0 127 0" result="hardAlpha"/>
<feOffset/>
<feGaussianBlur stdDeviation="2"/>
<feComposite in2="hardAlpha" operator="out"/>
<feColorMatrix type="matrix" values="0 0 0 0 0 0 0 0 0 0.505882 0 0 0 0 0.419608 0 0 0 0.35 0"/>
<feBlend mode="normal" in2="BackgroundImageFix" result="effect1_dropShadow_31_4469"/>
<feBlend mode="normal" in="SourceGraphic" in2="effect1_dropShadow_31_4469" result="shape"/>
</filter>
<radialGradient id="paint0_radial_31_4469" cx="0" cy="0" r="1" gradientUnits="userSpaceOnUse" gradientTransform="translate(40 40) rotate(90) scale(40)">
<stop stop-color="white" stop-opacity="0.7"/>
<stop offset="0.229167" stop-color="white" stop-opacity="0"/>
<stop offset="1" stop-color="white" stop-opacity="0.5"/>
</radialGradient>
<linearGradient id="paint1_linear_31_4469" x1="40" y1="7.85938" x2="41" y2="71.8594" gradientUnits="userSpaceOnUse">
<stop stop-color="white"/>
<stop offset="1" stop-color="#CCE6E3"/>
</linearGradient>
<linearGradient id="paint2_linear_31_4469" x1="39.9956" y1="18.9998" x2="39.9956" y2="61.2435" gradientUnits="userSpaceOnUse">
<stop stop-color="#008271"/>
<stop offset="1" stop-color="#00B39B"/>
</linearGradient>
<clipPath id="clip0_31_4469">
<rect width="40" height="42.2261" fill="white" transform="translate(20 19)"/>
</clipPath>
</defs>
</svg>
