<svg width="45" height="52" viewBox="0 0 45 52" fill="none" xmlns="http://www.w3.org/2000/svg">
<g id="CAG - Nov&#195;&#169; logo - Vertikal">
<path id="Path 478" d="M14.2181 48.466V47.0467C14.2181 47.0467 11.3485 47.6037 9.34962 47.6037C7.35078 47.6037 2.87246 46.4756 2.87246 43.3233C2.87246 40.1709 7.03696 39.3313 8.82376 39.3313C10.6106 39.3313 14.0739 40.0154 14.0739 40.0154V38.5962C14.0739 38.5962 11.6397 38.0703 8.98209 38.0703C6.3245 38.0703 0 38.9666 0 43.5353C0 48.1041 6.30471 48.842 8.71915 48.842C11.1336 48.842 14.2153 48.4688 14.2153 48.4688" fill="white"/>
<path id="Path 479" d="M21.4012 38.3867L14.418 48.6212H16.855L18.5655 46.0569H26.3404L30.1232 51.9998H33.0635L24.186 38.3867H21.404H21.4012ZM22.4501 40.1085L25.5064 44.8441H19.3967L22.4529 40.1085H22.4501Z" fill="white"/>
<path id="Path 480" d="M41.9426 43.51H38.6206V44.7455H41.9426V47.4455C41.1821 47.536 40.365 47.6066 39.6582 47.6066C37.6622 47.6066 33.181 46.4786 33.181 43.3262C33.181 40.1739 37.3456 39.3342 39.1323 39.3342C40.9192 39.3342 44.3825 40.0184 44.3825 40.0184V38.5991C44.3825 38.5991 41.9483 38.0732 39.2907 38.0732C36.6331 38.0732 30.3086 38.9667 30.3086 43.5355C30.3086 48.1042 36.6133 48.8421 39.0277 48.8421C41.4422 48.8421 44.5238 48.4689 44.5238 48.4689V43.5128H41.9426V43.51Z" fill="white"/>
<path id="Path 481" d="M13.9629 10.8799V24.7078H16.2982V13.2717L13.9629 10.8799Z" fill="white"/>
<path id="Path 482" d="M15.6484 9.47461L17.93 11.8099H28.4868V35.4964H30.8221V9.47461H15.6484Z" fill="white"/>
<rect id="Rectangle 565" x="23.7891" y="22.8906" width="2.96576" height="1.49277" fill="white"/>
<path id="Path 483" d="M0.0078125 0V35.6961H2.2499V2.29741H42.2818V35.6961H44.5239V0H0.0078125Z" fill="white"/>
</g>
</svg>
